<svg width="131" height="20" viewBox="0 0 131 20" fill="none" xmlns="http://www.w3.org/2000/svg">
<path d="M10.1318 15.3769L16.3118 19.1069L14.6718 12.0769L20.1318 7.34693L12.9418 6.72693L10.1318 0.106934L7.32184 6.72693L0.131836 7.34693L5.58184 12.0769L3.95184 19.1069L10.1318 15.3769Z" fill="#513B56"/>
<path d="M37.7129 15.3769L43.8929 19.1069L42.2529 12.0769L47.7129 7.34693L40.5229 6.72693L37.7129 0.106934L34.9029 6.72693L27.7129 7.34693L33.1629 12.0769L31.5329 19.1069L37.7129 15.3769Z" fill="#513B56"/>
<path d="M65.2939 15.3769L71.4739 19.1069L69.8339 12.0769L75.2939 7.34693L68.1039 6.72693L65.2939 0.106934L62.4839 6.72693L55.2939 7.34693L60.7439 12.0769L59.1139 19.1069L65.2939 15.3769Z" fill="#513B56"/>
<path d="M92.875 15.3769L99.055 19.1069L97.415 12.0769L102.875 7.34693L95.685 6.72693L92.875 0.106934L90.065 6.72693L82.875 7.34693L88.325 12.0769L86.695 19.1069L92.875 15.3769Z" fill="#513B56"/>
<path d="M120.456 13.4969L116.696 15.7669L117.686 11.4869L114.366 8.60693L118.746 8.23693L120.456 4.19693L122.166 8.23693L126.546 8.60693L123.226 11.4869L124.216 15.7669L120.456 13.4969ZM130.456 7.34693L123.266 6.73693L120.456 0.106934L117.646 6.73693L110.456 7.34693L115.906 12.0769L114.276 19.1069L120.456 15.3769L126.636 19.1069L124.996 12.0769L130.456 7.34693Z" fill="#513B56"/>
<path d="M120.672 2.51123V14.5835L115.509 17.1655L116.875 12.0783L112.852 8.20603L118.09 7.2949L120.672 2.51123Z" fill="#513B56"/>
</svg>
